<svg id="Layer_1" data-name="Layer 1" xmlns="http://www.w3.org/2000/svg" viewBox="0 0 512 512"><defs><style>.cls-1{fill:#fff;}.cls-2{fill:#15dfbc;}</style></defs><title>writtentrove-icon</title><circle cx="256" cy="256" r="236.5"/><path class="cls-1" d="M152.07,346.33a39.86,39.86,0,0,1-15.82-3.19q-7.47-3.18-9.43-9.56L78,184.05a9.9,9.9,0,0,1-.49-3.18c0-2.78,1.3-5.31,3.92-7.6a30,30,0,0,1,9.68-5.52,32.93,32.93,0,0,1,11.15-2.08,18.47,18.47,0,0,1,7.85,1.59,7.86,7.86,0,0,1,4.41,5.52l37.26,125.75,19.37-82.85q1.22-4.91,6.74-7.48a27.09,27.09,0,0,1,11.64-2.57,27.71,27.71,0,0,1,11.89,2.57q5.52,2.58,6.5,7.48l19.36,82.85,37.26-125.75a8.68,8.68,0,0,1,4.54-5.52,17.62,17.62,0,0,1,7.72-1.59,32.51,32.51,0,0,1,11.27,2.08,30.2,30.2,0,0,1,9.56,5.52q3.93,3.43,3.93,7.6a10.19,10.19,0,0,1-.49,3.18L252.32,333.58q-2.2,6.39-9.43,9.56a38.74,38.74,0,0,1-15.81,3.19,39.78,39.78,0,0,1-15.81-3.19q-7.49-3.18-9-9.56l-12.75-58.09-12.75,58.09q-1.47,6.39-8.94,9.56A39.85,39.85,0,0,1,152.07,346.33Z"/><path class="cls-2" d="M368.76,344.86a29.39,29.39,0,0,1-13.11-2.94q-6-2.94-6-8.83V200H315.81q-5.38,0-8.45-5.27a23.66,23.66,0,0,1-3.07-12.14,25.41,25.41,0,0,1,2.7-11.52,9.17,9.17,0,0,1,8.82-5.39h105.9a9.2,9.2,0,0,1,8.83,5.39,25.53,25.53,0,0,1,2.69,11.52,24.52,24.52,0,0,1-2.94,12.14q-2.94,5.26-8.58,5.27H387.88v133.1q0,5.9-6,8.83A29.46,29.46,0,0,1,368.76,344.86Z"/></svg>