<svg id="Layer_1" data-name="Layer 1" xmlns="http://www.w3.org/2000/svg" viewBox="0 0 800 400"><defs><style>.cls-1{fill:#15dfbc;}</style></defs><title>writtentrove_logo-pilot</title><path class="cls-1" d="M82.49,62.27,348.8,46.71A16.62,16.62,0,0,1,364.53,71L260,272.6a16.63,16.63,0,0,1-21,7.77L52.14,205.28a16.61,16.61,0,0,1-10-19.1l25.11-111A16.62,16.62,0,0,1,82.49,62.27Z"/><path d="M71,78.65q0-2.25,2.75-3.87a10.92,10.92,0,0,1,5.62-1.62q3.12,0,4,2.38l13.83,38.85,10.65-34.46q.87-2.87,4.62-2.87t4.62,2.88l10.46,34.73,14-39.08q.75-2.37,3.88-2.37A11.05,11.05,0,0,1,151,74.85q2.81,1.64,2.81,4a4.48,4.48,0,0,1-.5,2l-19.41,50.68c-.67,1.75-2.42,2.63-5.25,2.62s-4.62-.84-5.37-2.5L112.46,99.42l-10.77,31.83c-.75,1.92-2.63,2.87-5.62,2.87q-4.12,0-5.25-2.88L71.51,80.77A8,8,0,0,1,71,78.65Z"/><path d="M162,128.56,162.06,78a3.54,3.54,0,0,1,1.82-3,8.13,8.13,0,0,1,4.56-1.19A7.4,7.4,0,0,1,172.68,75a3.63,3.63,0,0,1,1.75,3.1V83.6a19.69,19.69,0,0,1,6.44-7.5A15.76,15.76,0,0,1,190.29,73h4a4.51,4.51,0,0,1,3.49,1.71,6,6,0,0,1,1.5,4.1A6.2,6.2,0,0,1,197.77,83a4.48,4.48,0,0,1-3.49,1.76h-4q-6,0-10.56,5.09c-3,3.4-4.56,7.81-4.57,13.2l0,25.54c0,1.08-.67,2.07-2,3a8.24,8.24,0,0,1-4.75,1.36,7.32,7.32,0,0,1-4.56-1.38A3.8,3.8,0,0,1,162,128.56Z"/><path d="M205.92,52.05a6.28,6.28,0,0,1,2.25-4.87,8.22,8.22,0,0,1,10.74,0,6.33,6.33,0,0,1,0,9.68,8,8,0,0,1-10.75,0A6.36,6.36,0,0,1,205.92,52.05ZM207,128.61,207,78A3.56,3.56,0,0,1,208.83,75a8.43,8.43,0,0,1,4.69-1.18A8.7,8.7,0,0,1,218.26,75,3.52,3.52,0,0,1,220.13,78l0,50.58a3.8,3.8,0,0,1-1.93,3,8,8,0,0,1-4.69,1.37,7.65,7.65,0,0,1-4.62-1.38A3.81,3.81,0,0,1,207,128.61Z"/><path d="M233.71,113.52,233.77,51a3.56,3.56,0,0,1,2-3,8.33,8.33,0,0,1,4.5-1.25A8.58,8.58,0,0,1,244.83,48a3.56,3.56,0,0,1,2.06,3l0,22.85,15.24,0a3.06,3.06,0,0,1,2.62,1.43,6.37,6.37,0,0,1,0,6.87,3,3,0,0,1-2.62,1.44l-15.24,0,0,30c0,3,.64,5.12,1.93,6.37s3.56,1.87,6.81,1.88h4.37a5.34,5.34,0,0,1,4.12,1.63,6.09,6.09,0,0,1,0,8,5.33,5.33,0,0,1-4.12,1.62h-4.37Q233.7,133,233.71,113.52Z"/><path d="M274.8,113.56,274.86,51a3.56,3.56,0,0,1,2-3,8.33,8.33,0,0,1,4.5-1.25A8.6,8.6,0,0,1,285.92,48,3.55,3.55,0,0,1,288,51l0,22.85,15.24,0a3.07,3.07,0,0,1,2.62,1.43,6.37,6.37,0,0,1,0,6.87,3.06,3.06,0,0,1-2.62,1.44l-15.24,0,0,30c0,3,.64,5.12,1.93,6.37s3.56,1.87,6.81,1.88H301a5.34,5.34,0,0,1,4.12,1.63,6.09,6.09,0,0,1,0,8,5.33,5.33,0,0,1-4.12,1.62h-4.37Q274.77,133,274.8,113.56Z"/><path d="M312.9,109.23V97.36a22.66,22.66,0,0,1,7.63-17,25.81,25.81,0,0,1,18.37-7.16,25.52,25.52,0,0,1,17.54,6.52,21,21,0,0,1,7.29,16.4,18.06,18.06,0,0,1-.88,6.17,5.76,5.76,0,0,1-2.75,3.31,11.79,11.79,0,0,1-3.5,1.21,28.55,28.55,0,0,1-4.25.25L326,107v2.9a12.3,12.3,0,0,0,4.48,10q4.5,3.7,11.74,3.72a20.6,20.6,0,0,0,9.68-2.38q4.56-2.38,5.56-2.39a4.4,4.4,0,0,1,3.62,2,6.56,6.56,0,0,1,1.5,3.89q0,3.09-6,6.23t-14.74,3.13q-12.75,0-20.85-6.89A22.4,22.4,0,0,1,312.9,109.23ZM326,98.63l20.73,0a6.43,6.43,0,0,0,3.69-.74c.62-.49.93-1.47.94-3a11.14,11.14,0,0,0-3.62-8.36,12.52,12.52,0,0,0-9-3.45,13.26,13.26,0,0,0-9,3.25A10.53,10.53,0,0,0,326,94.69Z"/><path d="M374.32,128.77l.05-50.58a3.55,3.55,0,0,1,1.82-3.06A8.37,8.37,0,0,1,380.87,74a7,7,0,0,1,4.18,1.2,3.66,3.66,0,0,1,1.69,3.1V82.8A16.93,16.93,0,0,1,393.17,76a19,19,0,0,1,10.31-2.77q8.86,0,15.29,7.26a25.26,25.26,0,0,1,6.41,17.37l0,31a3.6,3.6,0,0,1-1.94,3.18,9.51,9.51,0,0,1-9.18,0,3.58,3.58,0,0,1-2-3.18l0-30.89a12.77,12.77,0,0,0-3.74-9,11.75,11.75,0,0,0-8.86-4,11.61,11.61,0,0,0-8.37,3.54,12.56,12.56,0,0,0-3.63,9.4l0,30.89a3.77,3.77,0,0,1-2,3,8,8,0,0,1-4.62,1.37,7.58,7.58,0,0,1-4.62-1.38A3.84,3.84,0,0,1,374.32,128.77Z"/><path d="M172.1,277.7v39.53h-31c-29,0-46.58-17.71-46.58-46.83V221h-24V210.41l58.7-62.51h9.27v38.31h32.91V221H139.6v41.7c0,9.38,5.66,15,15.18,15Z"/><path d="M278.48,185.59v41.29H261c-16,0-22.67,7-22.67,23.72v66.63H193.16v-131H223.4l7,14.54c9.24-10.69,20.49-15.16,36.09-15.16Z"/><path d="M285.74,251.72c0-40.61,30.74-69.8,73.46-69.8s73.46,29.19,73.46,69.8-30.88,69.8-73.46,69.8S285.74,292.2,285.74,251.72ZM359.2,281c16.45,0,28.25-11.94,28.25-29.27s-11.8-29.26-28.25-29.26-28.26,11.94-28.26,29.26S342.74,281,359.2,281Z"/><path d="M580.49,186.21l-52.67,131H486.93l-53.37-131H483l24.76,77.6,24.49-77.6Z"/><path d="M724.14,250.48a82.63,82.63,0,0,1-.94,12H625.92c3,15,12.5,22.8,26.74,22.8,10.55,0,19.35-4.62,23.69-12.29h44.91c-9.22,29.9-35.72,48.59-68.6,48.59-40.88,0-71.16-29.88-71.16-69.91s30-69.7,71.16-69.7c42.24,0,71.48,30.13,71.48,68.56Zm-97.43-13h53c-4-13.1-13.4-20.16-27-20.16C639.51,217.28,630.36,224.42,626.71,237.44Z"/></svg>